/* XPM */
static const char * appicon1_xpm[] = {
"48 48 117 2",
"  	c None",
". 	c #4F3F1F",
"+ 	c #3F3010",
"@ 	c #2F200F",
"# 	c #30280F",
"$ 	c #907030",
"% 	c #40371F",
"& 	c #5F4720",
"* 	c #6F502F",
"= 	c #8F7830",
"- 	c #503F20",
"; 	c #5F4820",
"> 	c #70582F",
", 	c #7F602F",
"' 	c #BF9840",
") 	c #604F2F",
"! 	c #6F572F",
"~ 	c #8F6830",
"{ 	c #604F1F",
"] 	c #BFA840",
"^ 	c #9F7830",
"/ 	c #8F6F30",
"( 	c #9F7F30",
"_ 	c #907730",
": 	c #A0803F",
"< 	c #C0AF40",
"[ 	c #7F672F",
"} 	c #AF8F3F",
"| 	c #BF903F",
"1 	c #504020",
"2 	c #DFB84F",
"3 	c #C0973F",
"4 	c #C09F40",
"5 	c #CFB74F",
"6 	c #BF9740",
"7 	c #D0A740",
"8 	c #A08740",
"9 	c #D0C850",
"0 	c #D0B84F",
"a 	c #DFA840",
"b 	c #AF8730",
"c 	c #AF903F",
"d 	c #F0E05F",
"e 	c #FFF060",
"f 	c #FFEF5F",
"g 	c #9F973F",
"h 	c #808030",
"i 	c #505720",
"j 	c #CFA85F",
"k 	c #B08F3F",
"l 	c #F0DF5F",
"m 	c #F0E75F",
"n 	c #FFF86F",
"o 	c #FFFF6F",
"p 	c #D0D760",
"q 	c #CFC85F",
"r 	c #FFF780",
"s 	c #DFD87F",
"t 	c #DFB040",
"u 	c #E0B74F",
"v 	c #5F5820",
"w 	c #9F9F4F",
"x 	c #EFD05F",
"y 	c #FFFF8F",
"z 	c #EFD86F",
"A 	c #DFC87F",
"B 	c #C0A050",
"C 	c #E0B04F",
"D 	c #EFB84F",
"E 	c #F0C04F",
"F 	c #E0D050",
"G 	c #FFDF60",
"H 	c #FFD85F",
"I 	c #70602F",
"J 	c #90703F",
"K 	c #C09F50",
"L 	c #FFE05F",
"M 	c #DFC04F",
"N 	c #30281F",
"O 	c #DFC880",
"P 	c #F0C84F",
"Q 	c #E0BF4F",
"R 	c #9F7840",
"S 	c #CFAF60",
"T 	c #EFE080",
"U 	c #FFD050",
"V 	c #AF8840",
"W 	c #0F0800",
"X 	c #1F1000",
"Y 	c #20200F",
"Z 	c #CFB84F",
"` 	c #908030",
" .	c #E0CF60",
"..	c #60602F",
"+.	c #BFAF50",
"@.	c #DFC850",
"#.	c #404010",
"$.	c #302F10",
"%.	c #F0CF50",
"&.	c #FFE75F",
"*.	c #DFB050",
"=.	c #B09040",
"-.	c #A08F3F",
";.	c #2F201F",
">.	c #FFD750",
",.	c #B0904F",
"'.	c #4F381F",
").	c #8F7740",
"!.	c #8F6F3F",
"~.	c #6F582F",
"{.	c #806830",
"].	c #806F3F",
"^.	c #AF8F4F",
"/.	c #2F2010",
"(.	c #000000",
"_.	c #000700",
":.	c #1F180F",
"                          . . + @ #                                                             ",
"                        . + $ % & * # .                                                         ",
"                        . = & - ; > , - .                                                       ",
"                        . ' ) ; ! > ~ $ { .                                                     ",
"                        . ] ^ * > ~ / $ ( { .                                                   ",
"                      . ^ ' ' > , / _ ( : : > .                                                 ",
"                      . / : < [ / $ ( : : } | 1                                                 ",
"                      . ~ ^ 2 $ $ ^ : : } | 3 4 .                                               ",
"                      - ~ ^ 5 ' ^ ( : } 6 3 4 7 4 .                                             ",
"                      - ~ _ 6 5 8 9 9 2 0 a 7 a a b .                                           ",
"                      * ~ $ ( 9 c 9 d d e e e e f f ] g h i i i i i i i i i { i i               ",
"                      > ~ $ ^ j j > $ k 7 4 2 2 9 l d m m n n n o p p q ] n r o q %             ",
"                      > > ~ $ b s : > : 4 7 a a t u u a + + + i v w x n o y y z u %             ",
"                      ! { ~ $ ( A B ^ > 3 7 a a C D D E b         + F o z G H a $ -             ",
"                      * 1 I $ J K A } $ I 4 a a C D E E E .       $ L M 7 a 4 ~ N -             ",
"                      . 1 > / $ 8 O B 3 / $ a a C D E E P Q . . = Q ' $ : ^ ) N -               ",
"                      . 1 * / ~ R S T | 4 , / a C D E E P U ] ] > * ~ * * % > -                 ",
"                        1 1 ~ ~ J V T B 4 4 ~ ~ a D E P G H 4 + $ > W X Y Z ` -                 ",
"                        1 1 , / ~ R S  .4 7 a ^ , Q G x 4 4 U E +       ..f +                   ",
"                        - 1 > / ~ ~ : A a a a 0  .+.= 4 E E a @.#.      ..] -                   ",
"                        $.1 { / ~ J 8 V %.0 z 4 4 4 , ( E 4 %.L Z ..  #.&.-                     ",
"                          1 1 [ ~ ( $ ~ K 4 4 a C u t k I 6 E L L ..  ..9 -                     ",
"                          1 1 ! > 1 , , ~ *.t t C u D 7 $ , ~ ' F F ..L I                       ",
"                          - 1 > + [ , , [ : a t u u D D D 4 $ ~ $ =...l -                       ",
"                          $.* N N ~ ~ , I > 4 t C u D D E E E a c : l -.                        ",
"                        { ^ 1 ;.;.~ ~ , I > ~ a C u D D E E P U >.] >.>                         ",
"                    1 ^ 3 ,.'.N > ~ ~ , [ > > ( a u D D E E P U U ] @.>                         ",
"                  1 *.^ j B [ , , ~ ~ , [ > > > | C D D D E E U ] >.> $ {                       ",
"                * B B R ).^ , > : 3 | / , I > > [ 4 u D D E E P ] @.> ^ {                       ",
"              [ K K K R , 1 1 % 8 3 3 } , I > > * ~ } ( : : : ( U > b 9 (                       ",
"              [ K K K ).!.- N ~.R k 3 3 } , > > ! * ^ ^ ( : : ] U > >.5 ^ {                     ",
"              [ K K K ~.!.* {.R ).1 : 3 3 8 [ > > * * : C D ] %.> U < / c {                     ",
"              [ V V 8 {.].{.{.R ).; Y $ 3 3 8 I > * * > 8 C ] U > ' ~ ( l {                     ",
"              [ ,.R : ^.].{.!.).!., % + $ 3 3 8 [ ! * ) ! k E 2 / [ : E >.{                     ",
"              [ K K ' ^.!., > { { { 1 1 1 $ 3 3 k ~ * ) ; [ k ( ~ 7 E U U >.{                   ",
"              [ : 8 8 8 ).~.* 1 1 1 1 1 1 - 1 ( 3 3 ( > ; { [ : C D E P U U {                   ",
"              [ [ ^ : : ^ ; { 1 1 1 1 1 - + ;.;.;.( } | $ > * > 7 D E E P U {                   ",
"              [ [ R ^.V : > { 1 1 - - - '.+ ;.    ;.;.;.: $ - 1 * k D D E E {                   ",
"              [ I ^ V : ( [ { 1 1 - - - % + ;././.      ;.;.;.$.- & ^ t D D {                   ",
"              [ > ).: : ( ~ { 1 - - - '.% + 1 1 $././.          ;.;.N 1 ( 3 .                   ",
"              [ ! J : : ( $ { 1 - - - '.- 1 & & 1 1 - /./.            ;.;.;.                    ",
"              [ * J ^ ^ ^ ^ ; 1 - - - '.! ! * ; & 1 1 1 1 $.$.                                  ",
"              [ * $ ^ ^ ^ ^ * 1 - - - '.! > > * * ) { 1 1 1 1 '.$.                              ",
"              [ * $ ^ ( ^ _ I 1 - - - '.! > > > ! ! * ) { 1 1 1 1 - $.                          ",
"              [ * ~ ^ ^ ^ _ $ ~ { - - '.* > ! ! ! ! ! * * ; { 1 1 1 1 -                         ",
"                { ~ _ ^ ^ $ $ / , - - '.* ! ! ! ! ! * * * * * ; ; 1 1 '.                        ",
"                { ~ $ ^ _ $ $ ~ ~ * '.$.+ - { * * * * * * * * * * ) { N                         ",
"                  @ @ @ . { 1 - # /.(.        _._.:./.+ % & { * * * * :.                        "};
