/* XPM */
static const char * background_xpm[] = {
"64 64 179 2",
"  	c None",
". 	c #FF0E00",
"+ 	c #FF2800",
"@ 	c #FF3A00",
"# 	c #FF4000",
"$ 	c #FF5200",
"% 	c #FF4A00",
"& 	c #FF4800",
"* 	c #FF6000",
"= 	c #FF3200",
"- 	c #FF2A00",
"; 	c #FF1200",
"> 	c #FF1A00",
", 	c #FF1E00",
"' 	c #EF0000",
") 	c #C70000",
"! 	c #C50000",
"~ 	c #B90000",
"{ 	c #AF0000",
"] 	c #BF0000",
"^ 	c #A70000",
"/ 	c #CF0000",
"( 	c #F50000",
"_ 	c #FF1800",
": 	c #FF0A00",
"< 	c #FF1000",
"[ 	c #FF1600",
"} 	c #D50000",
"| 	c #CD0000",
"1 	c #D10000",
"2 	c #ED0000",
"3 	c #FF0200",
"4 	c #F70000",
"5 	c #FD0000",
"6 	c #F90000",
"7 	c #FF4600",
"8 	c #FF3E00",
"9 	c #FF2200",
"0 	c #FF2000",
"a 	c #E10000",
"b 	c #FF3600",
"c 	c #FF4E00",
"d 	c #FF7000",
"e 	c #FF6800",
"f 	c #FF5800",
"g 	c #FF7200",
"h 	c #FF7800",
"i 	c #FF5600",
"j 	c #FF3800",
"k 	c #FF3000",
"l 	c #FF2E00",
"m 	c #FF0600",
"n 	c #DF0000",
"o 	c #B70000",
"p 	c #AD0000",
"q 	c #BD0000",
"r 	c #B10000",
"s 	c #B50000",
"t 	c #D90000",
"u 	c #D70000",
"v 	c #E50000",
"w 	c #FF0000",
"x 	c #FF0800",
"y 	c #FF2600",
"z 	c #DD0000",
"A 	c #FF4200",
"B 	c #FF8200",
"C 	c #FF8000",
"D 	c #FF9600",
"E 	c #FFA600",
"F 	c #FF7A00",
"G 	c #FF5E00",
"H 	c #C90000",
"I 	c #9F0000",
"J 	c #A10000",
"K 	c #E90000",
"L 	c #F10000",
"M 	c #FF6200",
"N 	c #FF9200",
"O 	c #FFA200",
"P 	c #FFAA00",
"Q 	c #FFB200",
"R 	c #FF7600",
"S 	c #FF6600",
"T 	c #FF7E00",
"U 	c #FF8600",
"V 	c #E70000",
"W 	c #FF5A00",
"X 	c #FFBE00",
"Y 	c #FFB800",
"Z 	c #FF9E00",
"` 	c #FFA000",
" .	c #FFAE00",
"..	c #FF8A00",
"+.	c #C10000",
"@.	c #A50000",
"#.	c #810000",
"$.	c #8F0000",
"%.	c #FF9A00",
"&.	c #FFB000",
"*.	c #FFB600",
"=.	c #FFC200",
"-.	c #FFD000",
";.	c #FFC600",
">.	c #FF6E00",
",.	c #A90000",
"'.	c #970000",
").	c #8D0000",
"!.	c #910000",
"~.	c #870000",
"{.	c #890000",
"].	c #FF8800",
"^.	c #770000",
"/.	c #950000",
"(.	c #FF9800",
"_.	c #FF8E00",
":.	c #FFA800",
"<.	c #FF5000",
"[.	c #FF6A00",
"}.	c #990000",
"|.	c #9D0000",
"1.	c #FF9000",
"2.	c #FFBA00",
"3.	c #FFC000",
"4.	c #790000",
"5.	c #7F0000",
"6.	c #7D0000",
"7.	c #710000",
"8.	c #850000",
"9.	c #570000",
"0.	c #490000",
"a.	c #2F0000",
"b.	c #3D0000",
"c.	c #650000",
"d.	c #FFC800",
"e.	c #6D0000",
"f.	c #4D0000",
"g.	c #350000",
"h.	c #410000",
"i.	c #550000",
"j.	c #5D0000",
"k.	c #450000",
"l.	c #750000",
"m.	c #310000",
"n.	c #370000",
"o.	c #510000",
"p.	c #6F0000",
"q.	c #670000",
"r.	c #5F0000",
"s.	c #270000",
"t.	c #390000",
"u.	c #3F0000",
"v.	c #590000",
"w.	c #470000",
"x.	c #610000",
"y.	c #250000",
"z.	c #090000",
"A.	c #690000",
"B.	c #4F0000",
"C.	c #1F0000",
"D.	c #000000",
"E.	c #150000",
"F.	c #170000",
"G.	c #FFDE00",
"H.	c #FFE600",
"I.	c #FFF000",
"J.	c #FFCA00",
"K.	c #FFEE00",
"L.	c #FFEA00",
"M.	c #FFE000",
"N.	c #FFFC00",
"O.	c #FFD200",
"P.	c #FFD600",
"Q.	c #FFCE00",
"R.	c #2D0000",
"S.	c #290000",
"T.	c #1D0000",
"U.	c #0F0000",
"V.	c #190000",
". + @ # $ % & * $ = - + ; > = , . ' ) ! ~ { ] ! ^ { / ( _ : < : . [ ( } | 1 2 3 4 5 6 3 = 7 & 8 . 2 3 _ [ ; + & 8 - . 4 [ 9 0 _ ",
"a : b c d e f g h i j 9 > k c & l m n ) o p { q p r a . k 8 j + - k < } s q ) t u 1 a v 6 , - [ ' a 2 w x , 7 f f 7 y ; ; _ _ 6 ",
"z w y A e B C D E D F & # % G g f - x a H o I ^ I J t x l $ A y - 9 w n u z | 1 | ~ 1 n K x . 4 K K n L ; > - - j 8 k l _ 3 ( v ",
"} ( [ # M h N O P Q O R S d T N U * A , w u p p r ~ a w y f i = l , m w 3 5 t | | ~ ~ ! H K 4 V / o r | 4 < < : 0 k = b _ 2 u 1 ",
"K : y % G W h N E X Y Z N ` `  .P ..h f @ : 1 ! ) 1 2 5 - S d f i 8 0 ; w 5 t q H +.q p I { s ~ @.#.$.@./ 4 L ' : 9 b b . ' V a ",
"z 3 l c % c g %.P &.*.P  .X =.-.;.O D C i 0 v H H 1 ' . @ e >.R U M 8 l , > 4 1 u H s ,.'.).!.,.@.~.{.I o } 1 1 4 < , , 6 v v t ",
"a ( > 7 7 % h O %.N O ` &.Y  .*.E N Z ` g A ; ' L ( [ + # d B ].].>.G W % 7 9 5 m L / s {.^.!.I '.)./.{ o +.~ { u m 9 = > 4 V n ",
": . - $ f f R (...U _...:.Z B ].T h ].(.h c + [ 9 9 8 <.W C D %.D R [.F R G & = b + m u /.#.}./.{.!.|.~ ) ~ }.~.{ K 0 7 j [ x x ",
". [ A W G d _.O ..g W <.d T C ..U U %.O T G # - - k c * * F N O P N _.Z 1.d d M f # . v p ).'.!.}.|.}.@.J @.}./.! L , j 0 w 6 : ",
"3 ; A $ i C %._.h W A 7 W h U 1.%._.N N h >.* 7 k k i M [.N  .2.3. .P  .%.B F [.<.@ < t I 4.#.5.#.!./.$.4.5.$.,.v < > ; 5 K z ' ",
"V 6 + 7 S ..U M W # = 7 i F C h F [.>.[.* i # & A A [.h U :.Q Y X E (.:.O ` Z _.e A ; n p 6.6.6.4.4.7.8.~.#.'.,./ m 5 z t z H 1 ",
"t V 6 > c [.[.e f = - @ <.C _.>.c 8 @ & $ b [ y A & G g C _.U B U T ].` ` Q -.X U & < K H I !.}.}.8.6./.|.I @.|.{ t V | q ! r ] ",
"n 6 w m k <.e [.8 _ , l c R F e & l > 0 y > [ < k A 7 & A W M G S f M 1.Z E =.=.].f 8 . K ) p r p /.}.r o q s ^ q | v t | } ! | ",
"2 x , , 8 M R d 8 [ [ _ - W S i # - , . 5 3 3 < l j @ [ L ; y 9 k - + $ d ..Q Q _.d W j . n | / ) +.q +.} a z } a ' 2 a v a n K ",
", _ , 9 # M [.d <.+ y y b G f = _ w ' 2 K v t 4 < x 3 V u L 6 4 m _ > @ * C O D C S A k m a K L w 5 a 1 L 6 ' a t L v / u u ' _ ",
"y _ : + W >.>.d G & @ j i * & b < v } 1 ! ^ }.o H } } H z 2 ' 4 6 m _ 7 [.T _...C G 7 j _ 5 4 : 0 m v ( < w ' n / n t ) o ) w , ",
". _ [ l W e [.* % $ 7 j f S G % . 1 +.^ 6.9.9.5.}.r o { | V 5 < . : k e C ` *.O ..e G i b 9 . m . 5 5 . : 4 4 t +.] r ~ @.@.u ( ",
"m : _ b $ $ & b , j c % $ W W k 2 ) { #.0.a.b.c.{.^ ^ { } w _ y + + 7 F %.X d.:.1.T >.e <.= _ w 3 5 3 : 4 4 w } o o p s I '.+.K ",
"a a 6 k & c 7 j + @ f e e # - m z q ).e.f.g.h.i.7.@.s ~ z 3 . 0 8 j & M h Z Z B B N U U F * c y 0 . m _ [ x ( 1 +.) q ~ I ).o u ",
"] | V m > b b 8 # % M e i 0 V ) ~ }.j.k.b.k.c.c.l.,.H } z ' m _ = 8 7 @ & >.h d g _.B C B d S % b l l 8 @ _ 6 z } v 1 q J $.@.~ ",
"}.^ o } 5 , , k 8 7 S W b . 1 ^ J !.9.m.a.n.f.o.p.I ! v a t K 6 < 0 [ < 8 i * e [.B >.<.$ i e [.W % 8 $ f @ l : 5 x a ,.).4.8.!.",
"q.l.4.!.] V ( : , k % 8 + . a ) o /.r.a.s.t.h.u.r.'.| 4 5 L z a w L a L _ 8 i M * M $ - 0 A e F C S <.>.g $ 8 0 . x t $.9.k.v.q.",
"p.#.#.#.}.s q z 3 ; , : w ( z H @.7.0.s.a.0.0.f.6.{ V < [ _ ' H | ! 1 v ( _ b * [.i % + > j 7 W F g [.d G c # k ; 6 H {.i.m.w.x.",
"^.{.!./.).'.^ +.K 4 6 6 4 ' V ] 8.r.n.y.h.i.o.j.{.] v . [ [ m u ~ ] ) H u L x b c & <.j = @ 8 W T B C M A % 7 > 5 n s !.e.0.h.i.",
"7.{.I r |.8.).J H V 2 3 5 ' 2 ~ 5.v.y.z.s.b.w.r.$./ L . < w x 6 V V u H u 6 x 9 = l @ j 7 7 A S B _._.g * i 9 a / ~ ^ $.A.x.B.w.",
"e.$.,.+.~ I J r t 4 5 ; ; x 4 o 4.i.C.D.E.s.g.v.).| 2 w . 6 6 m w m 3 6 6 w x ; 0 l b # i $ i F D D _.].h W [ +.}.~.).5.r.q.c.9.",
"{.p ~ / } ] ] ! V : _ + y > m H !.e.g.F.m.t.b.o.p.o a L : m x : w 5 ( 3 3 5 . x ; = b j c i d %.:.P P O B <.5 p 4.q.6.8.4.4.7.^.",
"/ 1 H V L | ] H ' [ y = 9 > [ V ~ 8.w.k.c.x.B.f.e.r 2 . ; x : 3 5 4 v v ' 6 m < + l 0 , b & e ` Q  .Z ..g j 2 s ~.l.).I '.{.~.,.",
"( K a 2 a | t a 5 9 l 8 + > 0 6 } @.^.7.^.8.6.^.^ t : l > 6 2 z t n / ) u ' 4 : > y l > + & d %.E ` T G <.0 K ) }.).^ ] r o 1 v ",
"3 . 3 a } z 4 5 < k l 8 b y + . K H J ~.#.}.I p t : k l [ m ( 2 a } ! ~ H ' 3 5 3 [ 9 < ; @ f [.h g M <.@ _ ' z q ,.q | / ' : 3 ",
"> y 6 | } V 5 , % [.G i & b 8 y : w z ] +.H +.z . + j y 9 + > ; L | +.o ) V K v 4 2 t 1 u : , + 7 & c c = ; L ( 2 n ' V ' : 3 w ",
"; _ 5 t t V : @ >.U g e S <.7 j l k > 6 4 V u x @ A % & % & j y L / q ~ n n ) +.] I 8.8.$.+.K 3 0 = $ W A > ' 6 . 3 3 : ; m ( 3 ",
". > , : . x - c d ].R S e f A + . , [ 4 6 K V _ j & e g d d [.c . a ] ,.) H ~ ,.{.q.r.p.4.^ u L . _ = @ 9 x K V w x [ + 0 : . _ ",
"k @ 8 8 A 7 c W T ..g S $ @ y x 2 L 6 w 5 3 . 0 # c M h R g e A 3 1 { ,.+.] r /.7.j.o.x.6.|.H L x : 0 9 ; 3 ' 4 3 > 7 A k 9 > y ",
"k b j 8 A S >.[._.1.F d c y [ 6 t a x = = j = k $ S R 1.1.h W l ' u | +.! ,.!.p.0.u.m.b.c.~.] 6 < _ j k , . w , 9 + % % & j y y ",
"k y , + k [..._.P E ..h % y _ 3 n ' , <.d d g R T U U ..1.>.A + 3 K a | ~ ,./.4.0.t.u.u.j.8.s K x + 7 = 0 . 3 - @ j <.c 7 @ - y ",
"0 > > l # g N D  . .Z (.F f % # 0 9 # f R B ` Q P D d f W & k 0 w V v ) ,.I !.!.p.o.j.A.$.,.~ t 4 l % # # + > l + + # b 0 _ w x ",
"w , l k % g ]._.(. .P :.` T d e <.* F B U _.P *.P %.e @ k 9 , [ 5 v 1 ^ ^.^.6.5.p.r.6.|.+.a 2 K K , c G e $ k 0 _ > 0 ; x ( V ' ",
"[ l + 9 c e g C U E ` _...T U ].B U _.&.3.X -.;.*.` * 9 : ' a ' V n | ,.^.q.A.7.^.7.|.H K 4 ' 5 . l * >.[.>.A > ; _ : x < 6 5 m ",
"< _ > l $ M * S C O %.U R R _.(.` D D ;.G.H.I.J.&.%.* - 6 | H | H V V ~ $.7.x.q.l.6././ 4 L ' w [ 8 * G W >.<.0 5 L L ( . : x : ",
"6 5 . _ > b 8 % h O Z D ].U %.(.E O &.G.K.L.M.X E D [.7 : 1 } z K 3 K s /.4.q.c.^.$.}.~ | ! z L < 8 c c W >.$ l m u | ! u n t K ",
"a a L n | K 5 < # R B C T ..:.O :. .X L.N.K.M.X E O C <.+ x x > - l w / s #.x.q.4.I r q s J r | 6 = % <.M >.W 7 > t s p p s s | ",
"] q / H ! u a ( 9 c i f W G g F ..(.P O.M.P.-.X *.*.N M f & # 7 @ 8 [ a ) }.5.^.5.|.p ) ! p ~ ) 2 y b # W M * $ 0 5 K t +.r ^ s ",
"1 H | u 1 H / v 5 _ 9 k 8 b c [.C 1.` X Q.Q %.E &.%.C d g >.S G @ + ; t s '.5.8.|.s o ! | q ! v . k 7 $ >.B h $ 9 > [ m 2 q |.r ",
"2 w m : L u u 2 K 6 x w w x = * d B ..N E N U ..B h U h >.g e S @ m 2 ) r }.8.{.|.H u H } ! H 6 _ = i M F N h <.@ j - ; ' 1 H / ",
"m < y - , . 3 3 2 L x ' z K . A M d S G [.d h U T C (...T B e & > 2 ) ~ s '.{.!.r u n n V u / K < b f M S d e f 8 l y : ' ' 4 6 ",
"< < + y 0 0 x 3 n H t u n ' m k % e S f >.g T 1.].B 1.N (.(.e = < 5 t q I 8.8.!.! a v v u n z V 0 7 W >.W <.W f l ; [ : < x ( m ",
"5 x 9 y 0 y ; m ' ! ~ ! u V ( x + & $ * R h _.Z D N %.P P (.>.k < w n ] '.5.l.l.J ! } t / z 2 6 + $ * M c A # & = : 5 5 _ x V L ",
". [ + @ j 7 # > 4 H r ,.,.q +.t . l 7 W f * _.%.%.Z (.*.&...[.l . 5 t { 6.x.0.f.8.}.^ s p p ) n . & G W f f & b _ L n u 4 5 ( m ",
"_ 0 - j % f $ j ; n { /./.,.] n w + i G % W B .._.%.%.*.&.C f + 5 K ) ~.0.R.S.g.x.4.^.6.#.).p u x # c $ * i 8 l : K v t v V V x ",
"6 [ l l 7 i i c y 3 u o ] q H 4 . 9 & * f [._.N O P E Q E g 7 > a | { 6.i.C.F.s.0.e.q.x.7.8.^ 1 L l 7 @ 7 @ k b , ' a t u t a 4 ",
"2 0 $ 7 8 % M $ 9 ; w v u ~ o v ; l @ c * C D 1.D 1._.E Z [.k 5 n | J ^.o.T.U.C.B.p.p.c.r.6.@.s / . = @ b - b = 0 _ m K 2 3 . w ",
"9 # W * W c M e % y 6 K 1 r ~ ) ' y - y # S e e R >.T ].R f 0 a / H }.e.h.T.V.S.x.^.l.6.4.8./.'.s ' > # b _ + = @ A 9 : 0 l 9 9 ",
"* >.h R h g C 1.F 8 5 } o p { @.] 4 . < , # 8 # i 7 % <.@ = [ v ! { ~.o.R.S.t.i.$.|./.'.$.6.p.^.$.1 . k k + # & % i & # & & & f ",
"(.N ..>.e h B 1.d k ( ] ^ J ).8.s u 2 6 w 0 > x : m _ = j + 3 K H }.4.u.C.m.u.c.|.,.^ J {.5.5.!.^ u . b <.i >.g [.[.M h B B N ` ",
"d.Q ].[.d >.>.[.& > v +.{ $.^.l.|.) } u n 6 w ' z 1 V : > ; ' / s !.5.0.S.h.v.l.$.|.{ r ^ @.J s v x > 8 e h _.Z D B >.B E Q *.X ",
"Y X %.F T h h M @ . u ) r ).8.l.~.s r @.r ] | 1 r @.o z ' 2 u ] r ).l.i.k.i.x.#.$.I ) | ) | q ) m @ 7 f B (.P ` T R S e 1.*.Q P ",
"*.X Y P %.N T f j 5 +.H ! /.6.c.l.!.~.6.p.6.I }.5.5./.] n u s @.,.{.e.q.r.9.9.p.{.r z t H } 1 ' + & i g E  .Z ].S W c <.F :.3.Y ",
"2.X Q.Q.P ..i + [ 4 a t ~ ~.A.f.o.e.e.p.i.o.4.#.#.6.8.,.+.1 q '.}.{.l.e.o.k.i.x.#.~ t 2 ( 6 w > j <.>.F Z Z U [.i G G e N :.Q X ",
"Q.G.M.3.%.M y ; . 5 4 z { 5.x.f.w.q.e.q.r.B.v.7.^.p.#.^ o H ] ^ p }.).6.r.v.c.5.p / K [ 9 _ y = 8 f R C C h d % = % G F E Q P Y ",
"P.I.M.:.].$ 0 , : ' v +.}.6.e.l.l.).).7.p.p.l.8.^.q.#.o | u 1 ~ r I |.$.6.#.).,.z w + A k 0 8 & c <.c S f j b + = A c M h Z P *.",
"Y ;.*.C M @ _ : ' v a ] I I @.r p ^ ,.!.#.'.I !.).~.'.r +.u u / ) q ! s }.^ r H ( + c i A & e G $ % j # = [ < x ; - j l @ >.%.&.",
"O O Z >.i = [ _ x 4 2 1 H / | t ) p ~ ~ s +.,.{.).!./.,.H v z v n 1 a n u K L 3 9 A % W e S e c # = , , . 5 w w : ; x w - c g O ",
">.g >.$ % # @ 7 b _ : w L L ( ' z ) ! | | H ] ,./.'.J ! K L ( L V a t a L 5 < 9 l j b 7 e * % 8 9 x m ; . 4 6 [ , [ w 5 - b @ M "};
